{
  "accessors": [
    {
      "bufferView": 2,
      "componentType": 5126,
      "count": 65532,
      "max": [
        14.897100448608398,
        -5.0113701820373535,
        14.533599853515625
      ],
      "min": [
        -14.889800071716309,
        -27.450599670410156,
        -16.407499313354492
      ],
      "type": "VEC3"
    },
    {
      "bufferView": 2,
      "byteOffset": 786384,
      "componentType": 5126,
      "count": 65532,
      "max": [
        0.99999189376831055,
        0.99999982118606567,
        0.99998867511749268
      ],
      "min": [
        -0.99965935945510864,
        -0.99998992681503296,
        -0.99998408555984497
      ],
      "type": "VEC3"
    },
    {
      "bufferView": 3,
      "componentType": 5126,
      "count": 65532,
      "max": [
        1,
        0.99999994039535522,
        0.98830223083496094,
        -1
      ],
      "min": [
        -1,
        -1,
        -0.98757708072662354,
        -1
      ],
      "type": "VEC4"
    },
    {
      "bufferView": 1,
      "componentType": 5126,
      "count": 65532,
      "max": [
        0.66637897491455078,
        0.99995899200439453
      ],
      "min": [
        4.0999999328050762e-05,
        0.66687202453613281
      ],
      "type": "VEC2"
    },
    {
      "bufferView": 0,
      "componentType": 5125,
      "count": 267951,
      "max": [
        65531
      ],
      "min": [
        0
      ],
      "type": "SCALAR"
    },
    {
      "bufferView": 2,
      "byteOffset": 1572768,
      "componentType": 5126,
      "count": 65532,
      "max": [
        15.020700454711914,
        -5.0202498435974121,
        14.462699890136719
      ],
      "min": [
        -14.99530029296875,
        -27.547399520874023,
        -16.449300765991211
      ],
      "type": "VEC3"
    },
    {
      "bufferView": 2,
      "byteOffset": 2359152,
      "componentType": 5126,
      "count": 65532,
      "max": [
        0.99972176551818848,
        0.99999940395355225,
        0.99989503622055054
      ],
      "min": [
        -0.99998354911804199,
        -0.99999916553497314,
        -0.99999457597732544
      ],
      "type": "VEC3"
    },
    {
      "bufferView": 3,
      "byteOffset": 1048512,
      "componentType": 5126,
      "count": 65532,
      "max": [
        1,
        0.99999994039535522,
        0.99087995290756226,
        -1
      ],
      "min": [
        -1,
        -0.99999994039535522,
        -0.98886466026306152,
        -1
      ],
      "type": "VEC4"
    },
    {
      "bufferView": 1,
      "byteOffset": 524256,
      "componentType": 5126,
      "count": 65532,
      "max": [
        0.99962902069091797,
        0.99995899200439453
      ],
      "min": [
        4.0999999328050762e-05,
        0.33362001180648804
      ],
      "type": "VEC2"
    },
    {
      "bufferView": 0,
      "byteOffset": 1071804,
      "componentType": 5125,
      "count": 274479,
      "max": [
        65531
      ],
      "min": [
        0
      ],
      "type": "SCALAR"
    },
    {
      "bufferView": 2,
      "byteOffset": 3145536,
      "componentType": 5126,
      "count": 65532,
      "max": [
        15.021599769592285,
        -5.0639300346374512,
        14.559200286865234
      ],
      "min": [
        -14.899999618530273,
        -27.525899887084961,
        -16.259300231933594
      ],
      "type": "VEC3"
    },
    {
      "bufferView": 2,
      "byteOffset": 3931920,
      "componentType": 5126,
      "count": 65532,
      "max": [
        0.99999231100082397,
        0.99999231100082397,
        0.99999052286148071
      ],
      "min": [
        -0.99994492530822754,
        -0.99999755620956421,
        -0.99998980760574341
      ],
      "type": "VEC3"
    },
    {
      "bufferView": 3,
      "byteOffset": 2097024,
      "componentType": 5126,
      "count": 65532,
      "max": [
        1,
        1,
        0.97626775503158569,
        -1
      ],
      "min": [
        -1,
        -1,
        -0.98284560441970825,
        -1
      ],
      "type": "VEC4"
    },
    {
      "bufferView": 1,
      "byteOffset": 1048512,
      "componentType": 5126,
      "count": 65532,
      "max": [
        0.9993939995765686,
        0.66670697927474976
      ],
      "min": [
        4.0999999328050762e-05,
        0.00046999999904073775
      ],
      "type": "VEC2"
    },
    {
      "bufferView": 0,
      "byteOffset": 2169720,
      "componentType": 5125,
      "count": 319122,
      "max": [
        65531
      ],
      "min": [
        0
      ],
      "type": "SCALAR"
    },
    {
      "bufferView": 2,
      "byteOffset": 4718304,
      "componentType": 5126,
      "count": 57527,
      "max": [
        14.969799995422363,
        -5.1276001930236816,
        14.291999816894531
      ],
      "min": [
        -15.012900352478027,
        -27.547399520874023,
        -16.449300765991211
      ],
      "type": "VEC3"
    },
    {
      "bufferView": 2,
      "byteOffset": 5408628,
      "componentType": 5126,
      "count": 57527,
      "max": [
        0.99998331069946289,
        0.99999219179153442,
        0.99999028444290161
      ],
      "min": [
        -0.99999231100082397,
        -0.99997860193252563,
        -0.99999207258224487
      ],
      "type": "VEC3"
    },
    {
      "bufferView": 3,
      "byteOffset": 3145536,
      "componentType": 5126,
      "count": 57527,
      "max": [
        1,
        1,
        0.99868887662887573,
        -1
      ],
      "min": [
        -1,
        -1,
        -0.99574941396713257,
        -1
      ],
      "type": "VEC4"
    },
    {
      "bufferView": 1,
      "byteOffset": 1572768,
      "componentType": 5126,
      "count": 57527,
      "max": [
        0.99956899881362915,
        0.33345499634742737
      ],
      "min": [
        4.0999999328050762e-05,
        0.00036899998667649925
      ],
      "type": "VEC2"
    },
    {
      "bufferView": 0,
      "byteOffset": 3446208,
      "componentType": 5125,
      "count": 244713,
      "max": [
        57526
      ],
      "min": [
        0
      ],
      "type": "SCALAR"
    }
  ],
  "asset": {
    "extras": {
      "author": "Dystopia (https://sketchfab.com/Dystopia)",
      "license": "CC-BY-4.0 (http://creativecommons.org/licenses/by/4.0/)",
      "source": "https://sketchfab.com/3d-models/statue-aux-enfants-dits-de-versailles-fb482e8cfb5b449dbd00be3529dbac42",
      "title": "Statue Aux Enfants dits \" de Versailles \""
    },
    "generator": "Sketchfab-9.55.0",
    "version": "2.0"
  },
  "bufferViews": [
    {
      "buffer": 0,
      "byteLength": 4425060,
      "byteOffset": 0,
      "name": "floatBufferViews",
      "target": 34963
    },
    {
      "buffer": 0,
      "byteLength": 2032984,
      "byteOffset": 4425060,
      "byteStride": 8,
      "name": "floatBufferViews",
      "target": 34962
    },
    {
      "buffer": 0,
      "byteLength": 6098952,
      "byteOffset": 6458044,
      "byteStride": 12,
      "name": "floatBufferViews",
      "target": 34962
    },
    {
      "buffer": 0,
      "byteLength": 4065968,
      "byteOffset": 12556996,
      "byteStride": 16,
      "name": "floatBufferViews",
      "target": 34962
    }
  ],
  "buffers": [
    {
      "byteLength": 16622964,
      "uri": "scene.bin"
    }
  ],
  "images": [
    {
      "uri": "textures/poc__statue_enfant_Model_Sketchfab_baseColor.jpeg"
    },
    {
      "uri": "textures/poc__statue_enfant_Model_Sketchfab_normal.jpeg"
    }
  ],
  "materials": [
    {
      "doubleSided": true,
      "name": "poc__statue_enfant_Model_Sketchfab",
      "normalTexture": {
        "index": 1,
        "scale": 1,
        "texCoord": 0
      },
      "pbrMetallicRoughness": {
        "baseColorFactor": [
          1,
          1,
          1,
          1
        ],
        "baseColorTexture": {
          "index": 0,
          "texCoord": 0
        },
        "metallicFactor": 0,
        "roughnessFactor": 1
      }
    }
  ],
  "meshes": [
    {
      "primitives": [
        {
          "attributes": {
            "NORMAL": 1,
            "POSITION": 0,
            "TANGENT": 2,
            "TEXCOORD_0": 3
          },
          "indices": 4,
          "material": 0,
          "mode": 4
        }
      ]
    },
    {
      "primitives": [
        {
          "attributes": {
            "NORMAL": 6,
            "POSITION": 5,
            "TANGENT": 7,
            "TEXCOORD_0": 8
          },
          "indices": 9,
          "material": 0,
          "mode": 4
        }
      ]
    },
    {
      "primitives": [
        {
          "attributes": {
            "NORMAL": 11,
            "POSITION": 10,
            "TANGENT": 12,
            "TEXCOORD_0": 13
          },
          "indices": 14,
          "material": 0,
          "mode": 4
        }
      ]
    },
    {
      "primitives": [
        {
          "attributes": {
            "NORMAL": 16,
            "POSITION": 15,
            "TANGENT": 17,
            "TEXCOORD_0": 18
          },
          "indices": 19,
          "material": 0,
          "mode": 4
        }
      ]
    }
  ],
  "nodes": [
    {
      "children": [
        1
      ],
      "name": "RootNode (gltf orientation matrix)",
      "rotation": [
        -0.70710678118654746,
        -0,
        -0,
        0.70710678118654757
      ]
    },
    {
      "children": [
        2
      ],
      "matrix": [
        -0.86940932273864746,
        0.49385654926300049,
        0.015268660150468349,
        0,
        -0.013751130551099777,
        0.0067054140381515026,
        -0.99988293647766113,
        0,
        -0.49390113353729248,
        -0.86951756477355957,
        0.00096133595798164606,
        0,
        -0.94791620969772339,
        -17.252315521240234,
        -17.296453475952148,
        1
      ],
      "name": "RootNode (model correction matrix)"
    },
    {
      "children": [
        3,
        4,
        5,
        6
      ],
      "name": "poc__statue_enfant_Model_Sketchfab.obj.cleaner.materialmerger.gles"
    },
    {
      "mesh": 0,
      "name": ""
    },
    {
      "mesh": 1,
      "name": ""
    },
    {
      "mesh": 2,
      "name": ""
    },
    {
      "mesh": 3,
      "name": ""
    }
  ],
  "samplers": [
    {
      "magFilter": 9729,
      "minFilter": 9987,
      "wrapS": 10497,
      "wrapT": 10497
    }
  ],
  "scene": 0,
  "scenes": [
    {
      "name": "OSG_Scene",
      "nodes": [
        0
      ]
    }
  ],
  "textures": [
    {
      "sampler": 0,
      "source": 0
    },
    {
      "sampler": 0,
      "source": 1
    }
  ]
}

